<svg id="visual" viewBox="0 0 900 600" width="900" height="600" xmlns="http://www.w3.org/2000/svg" xmlns:xlink="http://www.w3.org/1999/xlink" version="1.1"><rect x="0" y="0" width="900" height="600" fill="#001220"></rect><defs><linearGradient id="grad1_0" x1="33.3%" y1="100%" x2="100%" y2="0%"><stop offset="20%" stop-color="#3cfaf8" stop-opacity="1"></stop><stop offset="80%" stop-color="#3cfaf8" stop-opacity="1"></stop></linearGradient></defs><defs><linearGradient id="grad1_1" x1="33.3%" y1="100%" x2="100%" y2="0%"><stop offset="20%" stop-color="#3cfaf8" stop-opacity="1"></stop><stop offset="80%" stop-color="#027b95" stop-opacity="1"></stop></linearGradient></defs><defs><linearGradient id="grad1_2" x1="33.3%" y1="100%" x2="100%" y2="0%"><stop offset="20%" stop-color="#001220" stop-opacity="1"></stop><stop offset="80%" stop-color="#027b95" stop-opacity="1"></stop></linearGradient></defs><defs><linearGradient id="grad2_0" x1="0%" y1="100%" x2="66.7%" y2="0%"><stop offset="20%" stop-color="#3cfaf8" stop-opacity="1"></stop><stop offset="80%" stop-color="#3cfaf8" stop-opacity="1"></stop></linearGradient></defs><defs><linearGradient id="grad2_1" x1="0%" y1="100%" x2="66.7%" y2="0%"><stop offset="20%" stop-color="#027b95" stop-opacity="1"></stop><stop offset="80%" stop-color="#3cfaf8" stop-opacity="1"></stop></linearGradient></defs><defs><linearGradient id="grad2_2" x1="0%" y1="100%" x2="66.7%" y2="0%"><stop offset="20%" stop-color="#027b95" stop-opacity="1"></stop><stop offset="80%" stop-color="#001220" stop-opacity="1"></stop></linearGradient></defs><g transform="translate(900, 600)"><path d="M-324.5 0C-307.4 -37.2 -290.3 -74.4 -277.2 -114.8C-264.1 -155.2 -255 -198.7 -229.5 -229.5C-203.9 -260.2 -161.9 -278.2 -120.9 -291.9C-79.9 -305.7 -40 -315.1 0 -324.5L0 0Z" fill="#0b435a"></path><path d="M-216.3 0C-204.9 -24.8 -193.5 -49.6 -184.8 -76.5C-176 -103.4 -170 -132.5 -153 -153C-135.9 -173.5 -107.9 -185.5 -80.6 -194.6C-53.3 -203.8 -26.6 -210.1 0 -216.3L0 0Z" fill="#01b9cb"></path><path d="M-108.2 0C-102.5 -12.4 -96.8 -24.8 -92.4 -38.3C-88 -51.7 -85 -66.2 -76.5 -76.5C-68 -86.7 -54 -92.7 -40.3 -97.3C-26.6 -101.9 -13.3 -105 0 -108.2L0 0Z" fill="#3cfaf8"></path></g><g transform="translate(0, 0)"><path d="M324.5 0C309.7 39.4 294.8 78.7 278.1 115.2C261.4 151.6 242.7 185.2 217.8 217.8C192.8 250.4 161.5 282.2 124.2 299.8C86.8 317.4 43.4 321 0 324.5L0 0Z" fill="#0b435a"></path><path d="M216.3 0C206.4 26.2 196.5 52.5 185.4 76.8C174.2 101.1 161.8 123.4 145.2 145.2C128.6 166.9 107.7 188.1 82.8 199.9C57.9 211.6 28.9 214 0 216.3L0 0Z" fill="#01b9cb"></path><path d="M108.2 0C103.2 13.1 98.3 26.2 92.7 38.4C87.1 50.5 80.9 61.7 72.6 72.6C64.3 83.5 53.8 94.1 41.4 99.9C28.9 105.8 14.5 107 0 108.2L0 0Z" fill="#3cfaf8"></path></g></svg>